<svg aria-hidden="true" style="position: absolute; width: 0; height: 0; overflow: hidden;" version="1.1" xmlns="http://www.w3.org/2000/svg" xmlns:xlink="http://www.w3.org/1999/xlink">
<defs>
<symbol id="icon-play" viewBox="0 0 17 32">
<path fill="#fff" style="fill: var(--color1, #fff)" d="M0.579 31.564c0.175 0.134 0.371 0.195 0.567 0.177s0.386-0.114 0.548-0.278l14.032-14.286c0.143-0.146 0.261-0.341 0.342-0.568s0.123-0.48 0.123-0.736c0-0.256-0.042-0.509-0.123-0.736s-0.198-0.422-0.341-0.568l-14.032-14.286c-0.162-0.165-0.351-0.261-0.548-0.279s-0.393 0.044-0.567 0.178c-0.174 0.134-0.321 0.336-0.422 0.584s-0.156 0.532-0.156 0.821v28.571c-0 0.29 0.054 0.574 0.156 0.822s0.248 0.45 0.423 0.584z"></path>
</symbol>
<symbol id="icon-pause" viewBox="0 0 32 32">
<path fill="#f8f8f8" style="fill: var(--color2, #f8f8f8)" d="M16 0.091c-8.786 0-15.909 7.124-15.909 15.909s7.124 15.909 15.909 15.909c8.786 0 15.909-7.124 15.909-15.909s-7.124-15.909-15.909-15.909zM21.117 16.245l-7.756 5.643c-0.043 0.031-0.093 0.049-0.145 0.053s-0.104-0.007-0.151-0.030c-0.047-0.024-0.086-0.060-0.113-0.105s-0.042-0.096-0.042-0.148v-11.278c-0-0.052 0.014-0.104 0.041-0.149s0.066-0.081 0.113-0.105 0.099-0.034 0.151-0.030c0.052 0.004 0.102 0.023 0.145 0.053l7.756 5.639c0.037 0.026 0.067 0.060 0.087 0.1s0.031 0.084 0.031 0.129c0 0.045-0.011 0.089-0.031 0.129s-0.051 0.074-0.087 0.1z"></path>
</symbol>
<symbol id="icon-map" viewBox="0 0 31 32">
<path fill="#f8f8f8" style="fill: var(--color2, #f8f8f8)" d="M13.6 31.2c-4.218-4.012-13.6-13.738-13.6-19.2 0-6.628 6.946-12 15.515-12 8.566 0 15.515 5.372 15.515 12 0 5.462-9.455 15.188-13.6 19.2-0.994 0.956-2.836 0.956-3.83 0zM15.515 16c2.853 0 5.172-1.794 5.172-4s-2.319-4-5.172-4c-2.853 0-5.172 1.794-5.172 4s2.319 4 5.172 4z"></path>
</symbol>
<symbol id="icon-arrow-left" viewBox="0 0 32 32">
<path  style="fill" d="M2 16c0 3.713 1.475 7.274 4.101 9.9s6.186 4.1 9.899 4.1c3.713 0 7.274-1.475 9.9-4.1s4.1-6.186 4.1-9.9c0-3.713-1.475-7.274-4.1-9.899s-6.186-4.101-9.9-4.101c-3.713 0-7.274 1.475-9.899 4.101s-4.101 6.186-4.101 9.899zM32 16c0 4.243-1.686 8.313-4.686 11.314s-7.070 4.686-11.314 4.686c-4.243 0-8.313-1.686-11.314-4.686s-4.686-7.070-4.686-11.314c0-4.243 1.686-8.313 4.686-11.314s7.070-4.686 11.314-4.686c4.243 0 8.313 1.686 11.314 4.686s4.686 7.070 4.686 11.314zM23 15h-11.586l4.294-4.292c0.188-0.188 0.293-0.442 0.293-0.708s-0.105-0.52-0.293-0.708c-0.188-0.188-0.442-0.293-0.708-0.293s-0.52 0.105-0.708 0.293l-6 6c-0.093 0.093-0.167 0.203-0.217 0.325s-0.076 0.252-0.076 0.383c0 0.132 0.026 0.262 0.076 0.383s0.124 0.232 0.217 0.325l6 6c0.093 0.093 0.203 0.167 0.325 0.217s0.252 0.076 0.383 0.076 0.262-0.026 0.383-0.076c0.121-0.050 0.232-0.124 0.325-0.217s0.167-0.203 0.217-0.325c0.050-0.122 0.076-0.252 0.076-0.383s-0.026-0.262-0.076-0.383c-0.050-0.122-0.124-0.232-0.217-0.325l-4.294-4.292h11.586c0.265 0 0.52-0.105 0.707-0.293s0.293-0.442 0.293-0.707c0-0.265-0.105-0.52-0.293-0.707s-0.442-0.293-0.707-0.293z"></path>
</symbol>
<symbol id="icon-arrow-right" viewBox="0 0 32 32">
<path  style="fill" d="M2 16c0 3.713 1.475 7.274 4.101 9.9s6.186 4.1 9.899 4.1c3.713 0 7.274-1.475 9.9-4.1s4.1-6.186 4.1-9.9c0-3.713-1.475-7.274-4.1-9.899s-6.186-4.101-9.9-4.101c-3.713 0-7.274 1.475-9.899 4.101s-4.101 6.186-4.101 9.899zM32 16c0 4.243-1.686 8.313-4.686 11.314s-7.070 4.686-11.314 4.686c-4.243 0-8.313-1.686-11.314-4.686s-4.686-7.070-4.686-11.314c0-4.243 1.686-8.313 4.686-11.314s7.070-4.686 11.314-4.686c4.243 0 8.313 1.686 11.314 4.686s4.686 7.070 4.686 11.314zM9 15h11.586l-4.294-4.292c-0.093-0.093-0.167-0.203-0.217-0.325s-0.076-0.252-0.076-0.383 0.026-0.262 0.076-0.383c0.050-0.121 0.124-0.232 0.217-0.325s0.203-0.167 0.325-0.217 0.252-0.076 0.383-0.076c0.132 0 0.262 0.026 0.383 0.076s0.232 0.124 0.325 0.217l6 6c0.093 0.093 0.167 0.203 0.218 0.325s0.076 0.252 0.076 0.383-0.026 0.262-0.076 0.383c-0.050 0.122-0.124 0.232-0.218 0.325l-6 6c-0.093 0.093-0.203 0.167-0.325 0.217s-0.252 0.076-0.383 0.076-0.262-0.026-0.383-0.076c-0.122-0.050-0.232-0.124-0.325-0.217s-0.167-0.203-0.217-0.325c-0.050-0.122-0.076-0.252-0.076-0.383s0.026-0.262 0.076-0.383c0.050-0.122 0.124-0.232 0.217-0.325l4.294-4.292h-11.586c-0.265 0-0.52-0.105-0.707-0.293s-0.293-0.442-0.293-0.707c0-0.265 0.105-0.52 0.293-0.707s0.442-0.293 0.707-0.293z"></path>
</symbol>
<symbol id="icon-twitter" viewBox="0 0 32 32">
<path  style="fill" d="M15.75 0c-8.698 0-15.75 7.052-15.75 15.75s7.052 15.75 15.75 15.75c8.698 0 15.75-7.052 15.75-15.75s-7.052-15.75-15.75-15.75zM23.319 11.872c0.011 0.165 0.011 0.338 0.011 0.506 0 5.161-3.931 11.106-11.113 11.106-2.215 0-4.268-0.643-5.998-1.751 0.316 0.035 0.619 0.049 0.942 0.049 1.828 0 3.509-0.619 4.848-1.666-1.716-0.035-3.157-1.16-3.649-2.707 0.601 0.088 1.143 0.088 1.761-0.070-0.883-0.179-1.677-0.659-2.247-1.358s-0.88-1.573-0.878-2.474v-0.049c0.517 0.292 1.125 0.471 1.761 0.496-0.535-0.356-0.974-0.839-1.277-1.406s-0.463-1.199-0.463-1.842c0-0.728 0.19-1.392 0.531-1.969 0.981 1.207 2.204 2.194 3.591 2.897s2.906 1.107 4.46 1.184c-0.552-2.654 1.431-4.802 3.815-4.802 1.125 0 2.137 0.471 2.851 1.23 0.883-0.165 1.726-0.496 2.479-0.939-0.292 0.903-0.903 1.666-1.716 2.148 0.787-0.084 1.547-0.302 2.25-0.608-0.531 0.78-1.195 1.473-1.958 2.025z"></path>
</symbol>
<symbol id="icon-facebook" viewBox="0 0 32 32">
<path  style="fill" d="M0 16.089c0 7.955 5.777 14.569 13.333 15.911v-11.556h-4v-4.444h4v-3.556c0-4 2.577-6.221 6.223-6.221 1.155 0 2.4 0.177 3.555 0.355v4.089h-2.044c-1.956 0-2.4 0.977-2.4 2.223v3.111h4.267l-0.711 4.444h-3.556v11.556c7.556-1.341 13.333-7.955 13.333-15.911 0-8.849-7.2-16.089-16-16.089s-16 7.24-16 16.089z"></path>
</symbol>
<symbol id="icon-linkedin" viewBox="0 0 32 32">
<path  style="fill" d="M16 0.64c-8.483 0-15.36 6.877-15.36 15.36s6.877 15.36 15.36 15.36c8.483 0 15.36-6.877 15.36-15.36s-6.877-15.36-15.36-15.36zM12.24 22.366h-3.11v-10.010h3.11v10.010zM10.666 11.128c-0.982 0-1.618-0.696-1.618-1.557 0-0.878 0.654-1.554 1.658-1.554s1.618 0.675 1.637 1.554c0 0.861-0.634 1.557-1.677 1.557zM23.6 22.366h-3.11v-5.547c0-1.291-0.451-2.168-1.576-2.168-0.859 0-1.37 0.594-1.595 1.165-0.083 0.203-0.104 0.491-0.104 0.778v5.771h-3.112v-6.816c0-1.25-0.040-2.294-0.082-3.194h2.702l0.142 1.39h0.062c0.41-0.653 1.413-1.616 3.091-1.616 2.046 0 3.581 1.371 3.581 4.318v5.918z"></path>
</symbol>
<symbol id="icon-youtube" viewBox="0 0 32 32">
<path  style="fill" d="M18.672 15.722l-3.743-1.747c-0.327-0.152-0.595 0.018-0.595 0.38v3.29c0 0.362 0.268 0.532 0.595 0.38l3.742-1.747c0.328-0.153 0.328-0.403 0.002-0.557zM16 0c-8.837 0-16 7.163-16 16s7.163 16 16 16c8.837 0 16-7.163 16-16s-7.163-16-16-16zM16 22.5c-8.19 0-8.333-0.738-8.333-6.5s0.143-6.5 8.333-6.5 8.333 0.738 8.333 6.5c0 5.762-0.143 6.5-8.333 6.5z"></path>
</symbol>
<symbol id="icon-ei_search" viewBox="0 0 37 32">
<path style="fill" d="M16.928 23.040c-5.299 0-9.568-3.712-9.568-8.32s4.269-8.32 9.568-8.32c5.299 0 9.568 3.712 9.568 8.32s-4.269 8.32-9.568 8.32zM16.928 7.68c-4.49 0-8.096 3.136-8.096 7.040s3.606 7.040 8.096 7.040c4.49 0 8.096-3.136 8.096-7.040s-3.606-7.040-8.096-7.040z"></path>
<path style="fill" d="M24.054 20.011l6.609 5.747-1.041 0.905-6.609-5.747 1.041-0.905z"></path>
</symbol>
<symbol id="icon-firatlogo" viewBox="0 0 34 32">
<path d="M0 0h33.969v32h-33.969v-32z"></path>
</symbol>
<symbol id="icon-plus" viewBox="0 0 32 32">
<path fill="#be0d0d" style="fill: var(--color1, #be0d0d)" d="M19 12.8v-12.8h-6v12.8h-12v6.4h12v12.8h6v-12.8h12v-6.4h-12z"></path>
</symbol>
<symbol id="icon-arrow-red" viewBox="0 0 58 32">
<path fill="#be0d0d" style="fill: var(--color1, #be0d0d)" d="M0 16.619c0-0.448 0.218-0.877 0.607-1.194s0.915-0.495 1.465-0.495h48.853l-13.037-10.623c-0.389-0.317-0.607-0.747-0.607-1.195s0.218-0.878 0.607-1.195c0.389-0.317 0.916-0.495 1.466-0.495s1.078 0.178 1.467 0.495l16.57 13.507c0.193 0.157 0.346 0.343 0.45 0.548s0.158 0.425 0.158 0.647c0 0.222-0.054 0.442-0.158 0.647s-0.257 0.391-0.45 0.548l-16.57 13.507c-0.389 0.317-0.917 0.495-1.467 0.495s-1.078-0.178-1.466-0.495c-0.389-0.317-0.607-0.747-0.607-1.195s0.218-0.878 0.607-1.195l13.037-10.623h-48.853c-0.549 0-1.076-0.178-1.465-0.495s-0.607-0.746-0.607-1.194z"></path>
</symbol>
<symbol id="icon-arrow-left-filled" viewBox="0 0 38 32">
<path  style="fill" d="M19.2 0.19c-5.092 0-9.976 1.618-13.576 4.498s-5.624 6.786-5.624 10.859c0 4.073 2.023 7.979 5.624 10.859s8.484 4.498 13.576 4.498c5.092 0 9.976-1.618 13.576-4.498s5.624-6.786 5.624-10.859c0-4.073-2.023-7.979-5.624-10.859s-8.484-4.498-13.576-4.498zM27.6 14.587c0.318 0 0.623 0.101 0.849 0.281s0.352 0.424 0.352 0.679c0 0.255-0.126 0.499-0.352 0.679s-0.53 0.281-0.849 0.281h-13.903l5.153 4.12c0.112 0.089 0.2 0.195 0.26 0.312s0.092 0.242 0.092 0.368-0.031 0.251-0.092 0.368c-0.060 0.117-0.149 0.223-0.26 0.312s-0.244 0.16-0.39 0.208c-0.146 0.048-0.302 0.073-0.46 0.073s-0.314-0.025-0.46-0.073c-0.146-0.048-0.278-0.119-0.39-0.208l-7.2-5.759c-0.112-0.089-0.2-0.195-0.261-0.312s-0.092-0.242-0.092-0.368c0-0.126 0.031-0.251 0.092-0.368s0.149-0.222 0.261-0.312l7.2-5.759c0.225-0.18 0.531-0.281 0.85-0.281s0.624 0.101 0.85 0.281c0.225 0.18 0.352 0.425 0.352 0.68s-0.127 0.499-0.352 0.68l-5.153 4.12h13.903z"></path>
</symbol>
<symbol id="icon-arrow-right-filled" viewBox="0 0 38 32">
<path  style="fill" d="M19.2 0.199c5.092 0 9.976 1.618 13.576 4.498s5.624 6.786 5.624 10.859c0 4.073-2.023 7.979-5.624 10.859s-8.484 4.498-13.576 4.498c-5.092 0-9.976-1.618-13.576-4.498s-5.624-6.786-5.624-10.859c0-4.073 2.023-7.979 5.624-10.859s8.484-4.498 13.576-4.498zM10.8 14.596c-0.318 0-0.623 0.101-0.849 0.281s-0.351 0.424-0.351 0.679c0 0.255 0.126 0.499 0.351 0.679s0.53 0.281 0.849 0.281h13.903l-5.153 4.12c-0.112 0.089-0.2 0.195-0.26 0.312s-0.092 0.242-0.092 0.368 0.031 0.251 0.092 0.368c0.060 0.117 0.149 0.223 0.26 0.312s0.244 0.16 0.39 0.208c0.146 0.048 0.302 0.073 0.46 0.073s0.314-0.025 0.46-0.073c0.146-0.048 0.278-0.119 0.39-0.208l7.2-5.759c0.112-0.089 0.2-0.195 0.261-0.312s0.092-0.242 0.092-0.368c0-0.126-0.031-0.251-0.092-0.368s-0.149-0.222-0.261-0.312l-7.2-5.759c-0.111-0.089-0.244-0.16-0.39-0.208s-0.302-0.073-0.46-0.073c-0.158 0-0.314 0.025-0.46 0.073s-0.278 0.119-0.39 0.208c-0.112 0.089-0.2 0.195-0.26 0.312s-0.092 0.242-0.092 0.368 0.031 0.251 0.092 0.368c0.060 0.117 0.149 0.223 0.26 0.312l5.153 4.12h-13.903z"></path>
</symbol>
<symbol id="icon-play-red" viewBox="0 0 26 32">
<path fill="#b60404" style="fill: var(--color1, #b60404)" d="M1.227 30.829c0.27 0.126 0.572 0.184 0.876 0.167s0.596-0.108 0.846-0.263l21.667-13.5c0.221-0.138 0.402-0.322 0.527-0.537s0.19-0.454 0.19-0.696-0.065-0.481-0.19-0.696c-0.125-0.215-0.306-0.399-0.527-0.537l-21.667-13.5c-0.25-0.156-0.543-0.247-0.846-0.264s-0.606 0.041-0.876 0.168c-0.269 0.127-0.495 0.318-0.652 0.552s-0.241 0.503-0.241 0.776v27c-0 0.274 0.083 0.542 0.241 0.777s0.383 0.425 0.653 0.552z"></path>
</symbol>
</defs>
</svg>
