<svg width="11" height="21" viewBox="0 0 11 21" xmlns="http://www.w3.org/2000/svg">
<path d="M0.379667 20.7142C0.49425 20.8019 0.622902 20.842 0.751813 20.8302C0.880723 20.8185 1.00502 20.7553 1.11137 20.6476L10.3197 11.2726C10.4138 11.1767 10.4907 11.0487 10.5438 10.8996C10.5969 10.7505 10.6247 10.5847 10.6247 10.4163C10.6247 10.248 10.5969 10.0821 10.5438 9.93303C10.4907 9.7839 10.4138 9.65593 10.3197 9.56007L1.11137 0.185065C1.00511 0.0769327 0.880748 0.0136122 0.751764 0.00196017C0.62278 -0.0096919 0.494086 0.0307685 0.379617 0.11896C0.265148 0.207152 0.169265 0.339715 0.102352 0.502294C0.0354385 0.664874 4.36215e-05 0.851276 9.62137e-09 1.04132V19.7913C-2.12977e-05 19.9815 0.035348 20.168 0.102274 20.3307C0.169201 20.4934 0.265131 20.626 0.379667 20.7142Z" fill="white"/>
</svg>
